<svg width="20" height="14" viewBox="0 0 20 14" fill="none" xmlns="http://www.w3.org/2000/svg">
<g clip-path="url(#clip0_6488_1441)">
<path d="M0.00146484 0.0488281H23.0035V14.0488H0.00146484V0.0488281Z" fill="white"/>
<path d="M0.00146484 0.0488281H23.0035V0.995077H0.00146484V0.0488281ZM0.00146484 1.94133H23.0035V2.88757H0.00146484V1.94133ZM0.00146484 3.83375H23.0035V4.77999H0.00146484V3.83375ZM0.00146484 5.72624H23.0035V6.67249H0.00146484V5.72624ZM0.00146484 7.61866H23.0035V8.56491H0.00146484V7.61866ZM0.00146484 9.51116H23.0035V10.4574H0.00146484V9.51116ZM0.00146484 11.4036H23.0035V12.3498H0.00146484V11.4036Z" fill="#B22234"/>
<path d="M0.0332031 13.1284H23.0353V14.0747H0.0332031V13.1284ZM0.0332031 15.0209H23.0353V15.9672H0.0332031V15.0209ZM0.0332031 16.9133H23.0353V17.8596H0.0332031V16.9133ZM0.0332031 18.8058H23.0353V19.7521H0.0332031V18.8058ZM0.0332031 20.6983H23.0353V21.6445H0.0332031V20.6983ZM0.0332031 22.5908H23.0353V23.537H0.0332031V22.5908ZM0.0332031 24.4832H23.0353V25.4294H0.0332031V24.4832Z" fill="#B22234"/>
<path d="M0.00146484 0.0488281H9.20229V6.67241H0.00146484V0.0488281Z" fill="#3C3B6E"/>
<path d="M0.433594 0.586472L0.652803 0.748283L0.569076 1.01013L0.788209 0.848315L1.00742 1.01013L0.923691 0.748283L1.14282 0.586472H0.871936L0.788209 0.324707L0.704481 0.586472H0.433594ZM1.95901 0.586472L2.17815 0.748283L2.09442 1.01013L2.31363 0.848315L2.53284 1.01013L2.44911 0.748283L2.66824 0.586472H2.39736L2.31363 0.324707L2.2299 0.586472H1.95901ZM3.48443 0.586472L3.70357 0.748283L3.61984 1.01013L3.83905 0.848315L4.05818 1.01013L3.97445 0.748283L4.19366 0.586472H3.92278L3.83905 0.324707L3.75532 0.586472H3.48443ZM5.00985 0.586472L5.22899 0.748283L5.14526 1.01013L5.36447 0.848315L5.5836 1.01013L5.49987 0.748283L5.71908 0.586472H5.44812L5.36447 0.324707L5.28074 0.586472H5.00985ZM6.5352 0.586472L6.75441 0.748283L6.67068 1.01013L6.88981 0.848315L7.10902 1.01013L7.02529 0.748283L7.24443 0.586472H6.97354L6.88981 0.324707L6.80608 0.586472H6.5352ZM8.06062 0.586472L8.27975 0.748283L8.19602 1.01013L8.41523 0.848315L8.63437 1.01013L8.55064 0.748283L8.76985 0.586472H8.49896L8.41523 0.324707L8.3315 0.586472H8.06062ZM1.19627 1.25078L1.41548 1.41259L1.33175 1.67435L1.55096 1.51254L1.77009 1.67435L1.68636 1.41259L1.90557 1.25078H1.63461L1.55096 0.988935L1.46723 1.25078H1.19627ZM2.72169 1.25078L2.9409 1.41259L2.85717 1.67435L3.0763 1.51254L3.29551 1.67435L3.21178 1.41259L3.43092 1.25078H3.16003L3.0763 0.988935L2.99257 1.25078H2.72169ZM4.24711 1.25078L4.46632 1.41259L4.38259 1.67435L4.60172 1.51254L4.82093 1.67435L4.7372 1.41259L4.95634 1.25078H4.68545L4.60172 0.988935L4.51799 1.25078H4.24711ZM5.77253 1.25078L5.99166 1.41259L5.90793 1.67435L6.12714 1.51254L6.34627 1.67435L6.26255 1.41259L6.48176 1.25078H6.21087L6.12714 0.988935L6.04341 1.25078H5.77253ZM7.29787 1.25078L7.51708 1.41259L7.43335 1.67435L7.65248 1.51254L7.87169 1.67435L7.78797 1.41259L8.0071 1.25078H7.73621L7.65248 0.988935L7.56883 1.25078H7.29787ZM0.433594 1.91501L0.652803 2.07682L0.569076 2.33866L0.788209 2.17685L1.00742 2.33866L0.923691 2.07682L1.14282 1.91501H0.871936L0.788209 1.65324L0.704481 1.91501H0.433594ZM1.95901 1.91501L2.17815 2.07682L2.09442 2.33866L2.31363 2.17685L2.53284 2.33866L2.44911 2.07682L2.66824 1.91501H2.39736L2.31363 1.65324L2.2299 1.91501H1.95901ZM3.48443 1.91501L3.70357 2.07682L3.61984 2.33866L3.83905 2.17685L4.05818 2.33866L3.97445 2.07682L4.19366 1.91501H3.92278L3.83905 1.65324L3.75532 1.91501H3.48443ZM5.00985 1.91501L5.22899 2.07682L5.14526 2.33866L5.36447 2.17685L5.5836 2.33866L5.49987 2.07682L5.71908 1.91501H5.44812L5.36447 1.65324L5.28074 1.91501H5.00985ZM6.5352 1.91501L6.75441 2.07682L6.67068 2.33866L6.88981 2.17685L7.10902 2.33866L7.02529 2.07682L7.24443 1.91501H6.97354L6.88981 1.65324L6.80608 1.91501H6.5352ZM8.06062 1.91501L8.27975 2.07682L8.19602 2.33866L8.41523 2.17685L8.63437 2.33866L8.55064 2.07682L8.76985 1.91501H8.49896L8.41523 1.65324L8.3315 1.91501H8.06062ZM1.21513 2.58149L1.43426 2.74331L1.35061 3.00507L1.56974 2.84326L1.78895 3.00507L1.70522 2.74323L1.92436 2.58149H1.65347L1.56974 2.31965L1.48601 2.58149H1.21513ZM2.74055 2.58149L2.95968 2.74331L2.87595 3.00507L3.09516 2.84326L3.3143 3.00507L3.23057 2.74323L3.44978 2.58149H3.17889L3.09516 2.31965L3.01143 2.58149H2.74055ZM4.26597 2.58149L4.4851 2.74331L4.40137 3.00507L4.62058 2.84326L4.83972 3.00507L4.75599 2.74323L4.9752 2.58149H4.70423L4.62058 2.31965L4.53685 2.58149H4.26597ZM5.79131 2.58149L6.01052 2.74331L5.92679 3.00507L6.14593 2.84326L6.36514 3.00507L6.28141 2.74323L6.50054 2.58149H6.22965L6.14593 2.31965L6.0622 2.58149H5.79131ZM7.31673 2.58149L7.53586 2.74331L7.45214 3.00507L7.67135 2.84326L7.89048 3.00507L7.80675 2.74323L8.02596 2.58149H7.75507L7.67135 2.31965L7.58762 2.58149H7.31673ZM0.456749 3.24019L0.675959 3.40192L0.592231 3.66377L0.811364 3.50196L1.03057 3.66377L0.946846 3.40192L1.16598 3.24019H0.895092L0.811364 2.97835L0.727637 3.24019H0.456749ZM1.98217 3.24019L2.2013 3.40192L2.11757 3.66377L2.33678 3.50196L2.55592 3.66377L2.47227 3.40192L2.6914 3.24019H2.42051L2.33678 2.97835L2.25306 3.24019H1.98217ZM3.50759 3.24019L3.72672 3.40192L3.64299 3.66377L3.8622 3.50196L4.08134 3.66377L3.99761 3.40192L4.21682 3.24019H3.94593L3.8622 2.97835L3.77848 3.24019H3.50759ZM5.03293 3.24019L5.25214 3.40192L5.16841 3.66377L5.38755 3.50196L5.60676 3.66377L5.52303 3.40192L5.74224 3.24019H5.47128L5.38755 2.97835L5.3039 3.24019H5.03293ZM6.55835 3.24019L6.77749 3.40192L6.69383 3.66377L6.91297 3.50196L7.13218 3.66377L7.04845 3.40192L7.26758 3.24019H6.9967L6.91297 2.97835L6.82924 3.24019H6.55835ZM8.08377 3.24019L8.30291 3.40192L8.21918 3.66377L8.43839 3.50196L8.65752 3.66377L8.57379 3.40192L8.793 3.24019H8.52211L8.43839 2.97835L8.35466 3.24019H8.08377ZM0.471087 4.54761L0.69022 4.70942L0.606493 4.97127L0.825702 4.80946L1.04484 4.97127L0.961108 4.70942L1.18032 4.54761H0.90943L0.825702 4.28585L0.741975 4.54761H0.471087ZM1.99643 4.54761L2.21564 4.70942L2.13191 4.97127L2.35105 4.80946L2.57026 4.97127L2.48653 4.70942L2.70566 4.54761H2.43477L2.35105 4.28585L2.26732 4.54761H1.99643ZM3.52185 4.54761L3.74098 4.70942L3.65733 4.97127L3.87647 4.80946L4.09568 4.97127L4.01195 4.70942L4.23108 4.54761H3.96019L3.87647 4.28585L3.79274 4.54761H3.52185ZM5.04727 4.54761L5.2664 4.70942L5.18268 4.97127L5.40189 4.80946L5.62102 4.97127L5.53737 4.70942L5.7565 4.54761H5.48561L5.40189 4.28585L5.31816 4.54761H5.04727ZM6.57261 4.54761L6.79182 4.70942L6.7081 4.97127L6.92723 4.80946L7.14644 4.97127L7.06271 4.70942L7.28192 4.54761H7.01096L6.92723 4.28585L6.84358 4.54761H6.57261ZM8.09803 4.54761L8.31717 4.70942L8.23352 4.97127L8.45265 4.80946L8.67186 4.97127L8.58813 4.70942L8.80726 4.54761H8.53638L8.45265 4.28585L8.36892 4.54761H8.09803ZM0.452455 5.87046L0.671588 6.03227L0.587861 6.29411L0.807071 6.1323L1.0262 6.29411L0.942476 6.03227L1.16169 5.87046H0.890721L0.807071 5.6087L0.723343 5.87046H0.452455ZM1.9778 5.87046L2.19701 6.03227L2.11328 6.29411L2.33241 6.1323L2.55162 6.29411L2.4679 6.03227L2.68703 5.87046H2.41614L2.33241 5.6087L2.24869 5.87046H1.9778ZM3.50322 5.87046L3.72235 6.03227L3.6387 6.29411L3.85783 6.1323L4.07704 6.29411L3.99332 6.03227L4.21245 5.87046H3.94156L3.85783 5.6087L3.77411 5.87046H3.50322ZM5.02864 5.87046L5.24777 6.03227L5.16404 6.29411L5.38325 6.1323L5.60239 6.29411L5.51874 6.03227L5.73787 5.87046H5.46698L5.38325 5.6087L5.29953 5.87046H5.02864ZM6.55398 5.87046L6.77319 6.03227L6.68946 6.29411L6.9086 6.1323L7.12781 6.29411L7.04408 6.03227L7.26329 5.87046H6.99232L6.9086 5.6087L6.82495 5.87046H6.55398ZM8.0794 5.87046L8.29853 6.03227L8.21488 6.29411L8.43402 6.1323L8.65323 6.29411L8.5695 6.03227L8.78863 5.87046H8.51775L8.43402 5.6087L8.35029 5.87046H8.0794ZM1.21965 3.88736L1.43878 4.04917L1.35513 4.31093L1.57427 4.14912L1.79348 4.31093L1.70975 4.04917L1.92888 3.88736H1.65799L1.57427 3.62552L1.49054 3.88736H1.21965ZM2.74507 3.88736L2.9642 4.04917L2.88048 4.31093L3.09969 4.14912L3.31882 4.31093L3.23517 4.04917L3.4543 3.88736H3.18341L3.09969 3.62552L3.01596 3.88736H2.74507ZM4.27049 3.88736L4.48962 4.04917L4.4059 4.31093L4.62511 4.14912L4.84424 4.31093L4.76051 4.04917L4.97972 3.88736H4.70883L4.62511 3.62552L4.54138 3.88736H4.27049ZM5.79583 3.88736L6.01504 4.04917L5.93132 4.31093L6.15045 4.14912L6.36966 4.31093L6.28593 4.04917L6.50506 3.88736H6.23418L6.15045 3.62552L6.06672 3.88736H5.79583ZM7.32125 3.88736L7.54039 4.04917L7.45666 4.31093L7.67587 4.14912L7.895 4.31093L7.81135 4.04917L8.03048 3.88736H7.7596L7.67587 3.62552L7.59214 3.88736H7.32125ZM1.21513 5.2081L1.43434 5.36991L1.35061 5.63176L1.56974 5.46994L1.78895 5.63176L1.70522 5.36991L1.92436 5.2081H1.65347L1.56974 4.94634L1.48601 5.2081H1.21513ZM2.74055 5.2081L2.95968 5.36991L2.87595 5.63176L3.09516 5.46994L3.31437 5.63176L3.23064 5.36991L3.44978 5.2081H3.17889L3.09516 4.94634L3.01143 5.2081H2.74055ZM4.26597 5.2081L4.4851 5.36991L4.40137 5.63176L4.62058 5.46994L4.83972 5.63176L4.75599 5.36991L4.9752 5.2081H4.70431L4.62058 4.94634L4.53685 5.2081H4.26597ZM5.79131 5.2081L6.01052 5.36991L5.92679 5.63176L6.14593 5.46994L6.36514 5.63176L6.28141 5.36991L6.50054 5.2081H6.22965L6.14593 4.94634L6.0622 5.2081H5.79131ZM7.31673 5.2081L7.53586 5.36991L7.45214 5.63176L7.67135 5.46994L7.89048 5.63176L7.80683 5.36991L8.02596 5.2081H7.75507L7.67135 4.94634L7.58762 5.2081H7.31673Z" fill="white"/>
</g>
<defs>
<clipPath id="clip0_6488_1441">
<path d="M0 2C0 0.89543 0.895431 0 2 0H18C19.1046 0 20 0.895431 20 2V12C20 13.1046 19.1046 14 18 14H2C0.895431 14 0 13.1046 0 12V2Z" fill="white"/>
</clipPath>
</defs>
</svg>
